<?xml version="1.0" encoding="UTF-8" standalone="no"?>
<!DOCTYPE svg PUBLIC "-//W3C//DTD SVG 1.1//EN" "http://www.w3.org/Graphics/SVG/1.1/DTD/svg11.dtd">
<svg width="100%" height="100%" viewBox="0 0 3000 3000" version="1.1" xmlns="http://www.w3.org/2000/svg" xmlns:xlink="http://www.w3.org/1999/xlink" xml:space="preserve" xmlns:serif="http://www.serif.com/" style="fill-rule:evenodd;clip-rule:evenodd;stroke-linejoin:round;stroke-miterlimit:2;">
    <path d="M3000,390C3000,174.753 2825.25,0 2610,0L390,0C174.753,0 0,174.753 0,390L0,2610C0,2825.25 174.753,3000 390,3000L2610,3000C2825.25,3000 3000,2825.25 3000,2610L3000,390Z" style="fill:white;"/>
    <g transform="matrix(4.62968,0,0,4.49814,383.691,-6938.97)">
        <g transform="matrix(533.505,0,0,533.505,170,2168)">
            <path d="M0.435,-0.709C0.462,-0.709 0.487,-0.705 0.509,-0.696C0.533,-0.687 0.553,-0.676 0.57,-0.661C0.587,-0.646 0.6,-0.628 0.609,-0.608C0.618,-0.588 0.623,-0.567 0.623,-0.544C0.623,-0.519 0.62,-0.496 0.615,-0.476C0.61,-0.456 0.601,-0.437 0.588,-0.418C0.575,-0.399 0.559,-0.38 0.538,-0.361C0.517,-0.342 0.491,-0.32 0.46,-0.296C0.442,-0.282 0.424,-0.269 0.406,-0.256C0.387,-0.243 0.369,-0.23 0.352,-0.217C0.334,-0.204 0.317,-0.19 0.3,-0.174C0.283,-0.16 0.268,-0.143 0.253,-0.124L0.551,-0.124L0.521,-0L0.06,-0C0.066,-0.042 0.076,-0.078 0.091,-0.109C0.106,-0.14 0.124,-0.168 0.146,-0.193C0.167,-0.218 0.192,-0.241 0.219,-0.263C0.246,-0.284 0.276,-0.307 0.308,-0.332C0.338,-0.355 0.364,-0.376 0.385,-0.393C0.406,-0.409 0.423,-0.425 0.436,-0.44C0.449,-0.454 0.458,-0.467 0.464,-0.48C0.47,-0.493 0.473,-0.506 0.473,-0.52C0.473,-0.537 0.467,-0.552 0.455,-0.564C0.442,-0.575 0.426,-0.581 0.407,-0.581C0.38,-0.581 0.353,-0.575 0.327,-0.564C0.301,-0.552 0.273,-0.534 0.242,-0.511L0.191,-0.62C0.231,-0.653 0.271,-0.676 0.311,-0.689C0.351,-0.702 0.392,-0.709 0.435,-0.709Z" style="fill-opacity:0.92;fill-rule:nonzero;"/>
        </g>
    </g>
    <g transform="matrix(2.36883,0,0,2.30153,-2729.71,-1851.64)">
        <g transform="matrix(1474.23,0,0,1474.23,1216,1931)">
            <path d="M0.269,-0.116C0.284,-0.116 0.3,-0.117 0.315,-0.119C0.33,-0.122 0.344,-0.126 0.356,-0.132C0.368,-0.138 0.378,-0.147 0.386,-0.158C0.393,-0.169 0.397,-0.183 0.397,-0.2C0.397,-0.213 0.393,-0.225 0.386,-0.234C0.379,-0.244 0.369,-0.253 0.358,-0.261C0.347,-0.269 0.334,-0.276 0.32,-0.283C0.306,-0.29 0.292,-0.297 0.278,-0.305C0.26,-0.316 0.243,-0.327 0.227,-0.339C0.211,-0.351 0.197,-0.365 0.186,-0.38C0.175,-0.395 0.166,-0.411 0.159,-0.43C0.152,-0.448 0.149,-0.469 0.149,-0.493C0.149,-0.524 0.155,-0.552 0.167,-0.579C0.178,-0.605 0.196,-0.628 0.219,-0.647C0.242,-0.666 0.27,-0.682 0.305,-0.693C0.34,-0.704 0.38,-0.709 0.427,-0.709C0.448,-0.709 0.469,-0.707 0.489,-0.704C0.509,-0.7 0.528,-0.695 0.545,-0.69C0.562,-0.685 0.578,-0.679 0.593,-0.672C0.607,-0.665 0.619,-0.658 0.629,-0.651L0.564,-0.536C0.547,-0.549 0.527,-0.559 0.503,-0.568C0.479,-0.577 0.453,-0.581 0.425,-0.581C0.41,-0.581 0.395,-0.58 0.381,-0.577C0.367,-0.574 0.355,-0.57 0.344,-0.564C0.333,-0.557 0.325,-0.549 0.319,-0.539C0.312,-0.529 0.309,-0.517 0.309,-0.502C0.309,-0.489 0.312,-0.477 0.317,-0.469C0.322,-0.46 0.328,-0.452 0.336,-0.445C0.344,-0.438 0.353,-0.432 0.364,-0.427C0.375,-0.422 0.386,-0.416 0.398,-0.41C0.419,-0.399 0.439,-0.388 0.458,-0.376C0.477,-0.364 0.494,-0.35 0.509,-0.335C0.524,-0.319 0.535,-0.301 0.544,-0.281C0.553,-0.261 0.557,-0.237 0.557,-0.21C0.557,-0.172 0.55,-0.139 0.536,-0.111C0.522,-0.083 0.502,-0.06 0.477,-0.041C0.452,-0.022 0.422,-0.009 0.387,0C0.352,0.009 0.313,0.014 0.27,0.014C0.242,0.014 0.216,0.012 0.192,0.007C0.167,0.002 0.145,-0.003 0.126,-0.01C0.106,-0.016 0.089,-0.023 0.075,-0.03C0.06,-0.037 0.049,-0.044 0.04,-0.05L0.106,-0.169C0.114,-0.164 0.124,-0.158 0.135,-0.152C0.146,-0.146 0.159,-0.14 0.173,-0.135C0.188,-0.13 0.203,-0.125 0.219,-0.122C0.235,-0.118 0.252,-0.116 0.269,-0.116Z" style="fill:rgb(57,57,255);fill-opacity:0.82;fill-rule:nonzero;"/>
        </g>
    </g>
</svg>
